<svg width="3818" height="1057" viewBox="0 0 3818 1057" fill="none" xmlns="http://www.w3.org/2000/svg">
<path d="M1232.5 704V336.5H1305L1369.5 559.5L1434 336.5H1507V704H1451V630.5C1451 596.5 1451.5 562.5 1452.5 528.5C1453.83 494.5 1454.83 460.5 1455.5 426.5L1393.5 642H1346L1283.5 426.5C1284.5 460.5 1285.5 494.5 1286.5 528.5C1287.5 562.5 1288 596.5 1288 630.5V704H1232.5ZM1656.5 708C1647.16 708 1638 707.167 1629 705.5C1620 703.833 1611.5 700.833 1603.5 696.5C1595.5 692.167 1588.33 686.667 1582 680C1576 673 1571 665.333 1567 657C1563.33 648.667 1560.66 640 1559 631C1557.66 622 1557 613 1557 604V544C1557 535 1557.66 526 1559 517C1560.66 507.667 1563.33 499 1567 491C1571 482.667 1576.16 475.167 1582.5 468.5C1588.83 461.5 1596 455.833 1604 451.5C1612 447.167 1620.5 444.167 1629.5 442.5C1638.5 440.833 1647.5 440 1656.5 440C1664.83 440 1673 440.5 1681 441.5C1689.33 442.5 1697.33 444.5 1705 447.5C1712.66 450.5 1719.83 454.5 1726.5 459.5C1733.16 464.5 1738.66 470.333 1743 477C1747.66 483.667 1751 491.167 1753 499.5C1755 507.5 1756 515.5 1756 523.5C1756 531.833 1755 540 1753 548C1751 556 1747.5 563.333 1742.5 570C1737.83 576.333 1732 581.833 1725 586.5C1718.33 591.167 1711.16 594.833 1703.5 597.5C1695.83 600.167 1687.83 602 1679.5 603C1671.5 604 1663.5 604.5 1655.5 604.5H1613C1613 611.167 1613.66 617.833 1615 624.5C1616.33 631.167 1618.83 637.333 1622.5 643C1626.16 648.333 1631 652.5 1637 655.5C1643.33 658.5 1649.83 660 1656.5 660C1661.5 660 1666.5 659.5 1671.5 658.5C1676.5 657.5 1681 655.667 1685 653C1689.33 650 1692.66 646.167 1695 641.5C1697.66 636.833 1699.16 632 1699.5 627H1755C1755 635 1753.83 642.833 1751.5 650.5C1749.16 658.167 1745.66 665.333 1741 672C1736.33 678.667 1730.66 684.333 1724 689C1717.66 693.667 1710.66 697.5 1703 700.5C1695.66 703.5 1688 705.5 1680 706.5C1672.33 707.5 1664.5 708 1656.5 708ZM1612.5 556.5H1655.5C1660.83 556.5 1666 556.167 1671 555.5C1676.33 554.5 1681.16 552.667 1685.5 550C1690.16 547 1693.83 543.167 1696.5 538.5C1699.16 533.833 1700.5 528.833 1700.5 523.5C1700.5 518.167 1699.33 513 1697 508C1694.66 503 1691.33 499 1687 496C1682.66 493 1677.83 491 1672.5 490C1667.16 488.667 1662 488 1657 488C1650 488 1643.33 489.5 1637 492.5C1631 495.5 1626 499.833 1622 505.5C1618.33 511.167 1615.83 517.333 1614.5 524C1613.16 530.667 1612.5 537.333 1612.5 544V556.5ZM1875.5 708C1867.5 708 1859.66 706.667 1852 704C1844.33 701.667 1837.5 697.833 1831.5 692.5C1825.5 686.833 1820.5 680.5 1816.5 673.5C1812.83 666.5 1809.83 659.167 1807.5 651.5C1805.5 643.833 1804 636 1803 628C1802.33 620 1802 612 1802 604V544C1802 536 1802.33 528 1803 520C1804 512 1805.5 504.167 1807.5 496.5C1809.83 488.833 1812.83 481.5 1816.5 474.5C1820.5 467.5 1825.5 461.333 1831.5 456C1837.5 450.333 1844.33 446.333 1852 444C1859.66 441.333 1867.5 440 1875.5 440C1882.83 440 1890.16 441.167 1897.5 443.5C1904.83 445.5 1911.33 448.833 1917 453.5C1922.66 458.167 1927.5 463.667 1931.5 470C1935.5 476 1938.83 482.5 1941.5 489.5V336.5H1997V649.5C1997 651.167 1997.16 652.667 1997.5 654C1997.83 655.333 1998.5 656.5 1999.5 657.5C2000.5 658.5 2001.66 659.167 2003 659.5C2004.33 659.833 2005.83 660 2007.5 660H2017.5V708H2007.5C1999.83 708 1992.16 707.167 1984.5 705.5C1976.83 703.833 1969.83 700.833 1963.5 696.5C1957.16 692.167 1952 686.5 1948 679.5C1944.33 672.5 1942.16 665.167 1941.5 657.5C1939.16 664.833 1936 671.667 1932 678C1928 684.333 1923 689.833 1917 694.5C1911.33 699.167 1904.83 702.5 1897.5 704.5C1890.5 706.833 1883.16 708 1875.5 708ZM1899.5 660C1906.16 660 1912.5 658.5 1918.5 655.5C1924.5 652.167 1929.16 647.667 1932.5 642C1935.83 636.333 1938.16 630.333 1939.5 624C1940.83 617.333 1941.5 610.667 1941.5 604V544C1941.5 537.333 1940.83 530.833 1939.5 524.5C1938.16 517.833 1935.83 511.667 1932.5 506C1929.16 500.333 1924.5 496 1918.5 493C1912.5 489.667 1906.16 488 1899.5 488C1892.83 488 1886.5 489.667 1880.5 493C1874.5 496 1869.83 500.333 1866.5 506C1863.16 511.667 1860.83 517.833 1859.5 524.5C1858.16 530.833 1857.5 537.333 1857.5 544V604C1857.5 610.667 1858.16 617.333 1859.5 624C1860.83 630.333 1863.16 636.333 1866.5 642C1869.83 647.667 1874.5 652.167 1880.5 655.5C1886.5 658.5 1892.83 660 1899.5 660ZM2551.5 708C2542.5 708 2533.33 707 2524 705C2515 703.333 2506.5 700.333 2498.5 696C2490.83 691.333 2483.83 685.5 2477.5 678.5C2471.5 671.167 2466.67 663.333 2463 655C2459.33 646.667 2456.83 638 2455.5 629C2454.17 619.667 2453.5 610.5 2453.5 601.5V439C2453.5 430 2454.17 421 2455.5 412C2456.83 402.667 2459.33 393.833 2463 385.5C2466.67 377.167 2471.5 369.5 2477.5 362.5C2483.83 355.167 2490.83 349.333 2498.5 345C2506.5 340.333 2515 337.167 2524 335.5C2533.33 333.5 2542.5 332.5 2551.5 332.5C2560.17 332.5 2568.67 333.333 2577 335C2585.67 336.333 2593.83 339 2601.5 343C2609.17 346.667 2616 351.667 2622 358C2628.33 364 2633.5 370.833 2637.5 378.5C2641.5 385.833 2644.5 393.833 2646.5 402.5C2648.5 410.833 2649.5 419.333 2649.5 428V431H2594V429.5C2594 423.5 2593.17 417.5 2591.5 411.5C2589.83 405.5 2587.17 400.167 2583.5 395.5C2579.83 390.5 2575 386.833 2569 384.5C2563.33 381.833 2557.5 380.5 2551.5 380.5C2546.83 380.5 2542.33 381.167 2538 382.5C2533.67 383.833 2529.83 386 2526.5 389C2523.17 392 2520.33 395.5 2518 399.5C2515.67 403.5 2513.83 407.667 2512.5 412C2511.17 416.333 2510.17 420.833 2509.5 425.5C2509.17 429.833 2509 434.333 2509 439V601.5C2509 606.167 2509.17 610.833 2509.5 615.5C2510.17 619.833 2511.17 624.167 2512.5 628.5C2513.83 632.833 2515.67 637 2518 641C2520.33 645 2523.17 648.5 2526.5 651.5C2529.83 654.5 2533.67 656.667 2538 658C2542.33 659.333 2546.83 660 2551.5 660C2557.5 660 2563.33 658.833 2569 656.5C2575 653.833 2579.83 650.167 2583.5 645.5C2587.17 640.5 2589.83 635 2591.5 629C2593.17 623 2594 617 2594 611V609.5H2649.5V612.5C2649.5 621.167 2648.5 629.833 2646.5 638.5C2644.5 646.833 2641.5 654.833 2637.5 662.5C2633.5 669.833 2628.33 676.667 2622 683C2616 689 2609.17 694 2601.5 698C2593.83 701.667 2585.67 704.167 2577 705.5C2568.67 707.167 2560.17 708 2551.5 708ZM2825 704H2805C2798.33 704 2791.67 703.5 2785 702.5C2778.33 701.5 2772 699.667 2766 697C2760 694 2754.33 690.333 2749 686C2744 681.333 2739.83 676.167 2736.5 670.5C2733.5 664.5 2731.33 658.167 2730 651.5C2729 644.833 2728.5 638.167 2728.5 631.5V384.5H2698V336.5H2784V631.5C2784 634.5 2784.33 637.5 2785 640.5C2785.67 643.5 2787 646.333 2789 649C2791 651.333 2793.33 653.167 2796 654.5C2799 655.5 2802 656 2805 656H2825V704ZM2986.5 704H2966.5C2959.84 704 2953.17 703.5 2946.5 702.5C2939.84 701.5 2933.5 699.667 2927.5 697C2921.5 694 2915.84 690.333 2910.5 686C2905.5 681.333 2901.34 676.167 2898 670.5C2895 664.5 2892.84 658.167 2891.5 651.5C2890.5 644.833 2890 638.167 2890 631.5V492H2859.5V444H2945.5V631.5C2945.5 634.5 2945.84 637.5 2946.5 640.5C2947.17 643.5 2948.5 646.333 2950.5 649C2952.5 651.333 2954.84 653.167 2957.5 654.5C2960.5 655.5 2963.5 656 2966.5 656H2986.5V704ZM2918 409C2912.67 409 2907.34 408.167 2902 406.5C2896.67 404.833 2892 402.167 2888 398.5C2884.34 394.833 2881.67 390.333 2880 385C2878.67 379.667 2878 374.333 2878 369C2878 363.667 2878.67 358.333 2880 353C2881.67 347.667 2884.34 343.167 2888 339.5C2892 335.833 2896.67 333.167 2902 331.5C2907.34 329.833 2912.67 329 2918 329C2923.34 329 2928.67 329.833 2934 331.5C2939.34 333.167 2943.84 335.833 2947.5 339.5C2951.17 343.167 2953.84 347.667 2955.5 353C2957.17 358.333 2958 363.667 2958 369C2958 374.333 2957.17 379.667 2955.5 385C2953.84 390.333 2951.17 394.833 2947.5 398.5C2943.84 402.167 2939.34 404.833 2934 406.5C2928.67 408.167 2923.34 409 2918 409ZM3025.51 704V444H3081.01V489C3083.67 482.333 3086.84 475.833 3090.51 469.5C3094.51 463.167 3099.17 457.833 3104.51 453.5C3110.17 448.833 3116.51 445.5 3123.51 443.5C3130.51 441.167 3137.67 440 3145.01 440C3153.01 440 3160.67 441.333 3168.01 444C3175.67 446.667 3182.34 450.833 3188.01 456.5C3194.01 461.833 3198.84 468 3202.51 475C3206.17 482 3209.01 489.333 3211.01 497C3213.34 504.667 3214.84 512.5 3215.51 520.5C3216.17 528.167 3216.51 536 3216.51 544V704H3161.01V544C3161.01 539.667 3160.67 535.333 3160.01 531C3159.67 526.667 3158.84 522.5 3157.51 518.5C3156.51 514.167 3154.84 510.167 3152.51 506.5C3150.51 502.833 3147.84 499.5 3144.51 496.5C3141.51 493.5 3137.84 491.333 3133.51 490C3129.51 488.667 3125.34 488 3121.01 488C3116.67 488 3112.34 488.667 3108.01 490C3104.01 491.333 3100.34 493.5 3097.01 496.5C3094.01 499.5 3091.34 502.833 3089.01 506.5C3087.01 510.167 3085.34 514.167 3084.01 518.5C3083.01 522.5 3082.17 526.667 3081.51 531C3081.17 535.333 3081.01 539.667 3081.01 544V704H3025.51ZM3393.01 704H3373.01C3366.34 704 3359.67 703.5 3353.01 702.5C3346.34 701.5 3340.01 699.667 3334.01 697C3328.01 694 3322.34 690.333 3317.01 686C3312.01 681.333 3307.84 676.167 3304.51 670.5C3301.51 664.5 3299.34 658.167 3298.01 651.5C3297.01 644.833 3296.51 638.167 3296.51 631.5V492H3266.01V444H3352.01V631.5C3352.01 634.5 3352.34 637.5 3353.01 640.5C3353.67 643.5 3355.01 646.333 3357.01 649C3359.01 651.333 3361.34 653.167 3364.01 654.5C3367.01 655.5 3370.01 656 3373.01 656H3393.01V704ZM3324.51 409C3319.17 409 3313.84 408.167 3308.51 406.5C3303.17 404.833 3298.51 402.167 3294.51 398.5C3290.84 394.833 3288.17 390.333 3286.51 385C3285.17 379.667 3284.51 374.333 3284.51 369C3284.51 363.667 3285.17 358.333 3286.51 353C3288.17 347.667 3290.84 343.167 3294.51 339.5C3298.51 335.833 3303.17 333.167 3308.51 331.5C3313.84 329.833 3319.17 329 3324.51 329C3329.84 329 3335.17 329.833 3340.51 331.5C3345.84 333.167 3350.34 335.833 3354.01 339.5C3357.67 343.167 3360.34 347.667 3362.01 353C3363.67 358.333 3364.51 363.667 3364.51 369C3364.51 374.333 3363.67 379.667 3362.01 385C3360.34 390.333 3357.67 394.833 3354.01 398.5C3350.34 402.167 3345.84 404.833 3340.51 406.5C3335.17 408.167 3329.84 409 3324.51 409ZM3526.01 708C3517.01 708 3508.01 707.167 3499.01 705.5C3490.01 703.833 3481.51 700.833 3473.51 696.5C3465.85 691.833 3458.85 686.167 3452.51 679.5C3446.51 672.5 3441.51 665 3437.51 657C3433.85 648.667 3431.35 640 3430.01 631C3428.68 622 3428.01 613 3428.01 604V544C3428.01 535 3428.68 526 3430.01 517C3431.35 508 3433.85 499.5 3437.51 491.5C3441.51 483.167 3446.51 475.667 3452.51 469C3458.85 462 3465.85 456.333 3473.51 452C3481.51 447.333 3490.01 444.167 3499.01 442.5C3508.01 440.833 3517.01 440 3526.01 440C3534.68 440 3543.18 440.833 3551.51 442.5C3560.18 443.833 3568.35 446.5 3576.01 450.5C3583.68 454.167 3590.51 459 3596.51 465C3602.85 471 3608.01 477.833 3612.01 485.5C3616.01 493.167 3619.01 501.167 3621.01 509.5C3623.01 517.833 3624.01 526.333 3624.01 535V538.5H3568.51V537C3568.51 530.667 3567.68 524.5 3566.01 518.5C3564.35 512.5 3561.68 507.167 3558.01 502.5C3554.35 497.833 3549.51 494.333 3543.51 492C3537.85 489.333 3532.01 488 3526.01 488C3519.35 488 3513.01 489.667 3507.01 493C3501.01 496 3496.18 500.333 3492.51 506C3489.18 511.667 3486.85 517.833 3485.51 524.5C3484.18 530.833 3483.51 537.333 3483.51 544V604C3483.51 610.667 3484.18 617.333 3485.51 624C3486.85 630.333 3489.18 636.333 3492.51 642C3496.18 647.667 3501.01 652.167 3507.01 655.5C3513.01 658.5 3519.35 660 3526.01 660C3532.01 660 3537.85 658.833 3543.51 656.5C3549.51 653.833 3554.35 650.167 3558.01 645.5C3561.68 640.833 3564.35 635.5 3566.01 629.5C3567.68 623.5 3568.51 617.333 3568.51 611V609.5H3624.01V613C3624.01 621.667 3623.01 630.167 3621.01 638.5C3619.01 646.833 3616.01 654.833 3612.01 662.5C3608.01 670.167 3602.85 677 3596.51 683C3590.51 689 3583.68 694 3576.01 698C3568.35 701.667 3560.18 704.167 3551.51 705.5C3543.18 707.167 3534.68 708 3526.01 708Z" fill="#0E1320"/>
<path d="M2173.5 704H2153.5C2146.83 704 2140.16 703.5 2133.5 702.5C2126.83 701.5 2120.5 699.667 2114.5 697C2108.5 694 2102.83 690.333 2097.5 686C2092.5 681.333 2088.33 676.167 2085 670.5C2082 664.5 2079.83 658.167 2078.5 651.5C2077.5 644.833 2077 638.167 2077 631.5V492H2046.5V444H2132.5V631.5C2132.5 634.5 2132.83 637.5 2133.5 640.5C2134.16 643.5 2135.5 646.333 2137.5 649C2139.5 651.333 2141.83 653.167 2144.5 654.5C2147.5 655.5 2150.5 656 2153.5 656H2173.5V704ZM2105 409C2099.66 409 2094.33 408.167 2089 406.5C2083.66 404.833 2079 402.167 2075 398.5C2071.33 394.833 2068.66 390.333 2067 385C2065.66 379.667 2065 374.333 2065 369C2065 363.667 2065.66 358.333 2067 353C2068.66 347.667 2071.33 343.167 2075 339.5C2079 335.833 2083.66 333.167 2089 331.5C2094.33 329.833 2099.66 329 2105 329C2110.33 329 2115.66 329.833 2121 331.5C2126.33 333.167 2130.83 335.833 2134.5 339.5C2138.16 343.167 2140.83 347.667 2142.5 353C2144.16 358.333 2145 363.667 2145 369C2145 374.333 2144.16 379.667 2142.5 385C2140.83 390.333 2138.16 394.833 2134.5 398.5C2130.83 402.167 2126.33 404.833 2121 406.5C2115.66 408.167 2110.33 409 2105 409ZM2282 708C2272 708 2262.17 706.5 2252.5 703.5C2242.83 700.5 2234.5 695.5 2227.5 688.5C2220.83 681.167 2216 672.667 2213 663C2210 653.333 2208.5 643.5 2208.5 633.5C2208.5 624.833 2209.5 616.167 2211.5 607.5C2213.83 598.5 2217.5 590.5 2222.5 583.5C2227.83 576.5 2234.17 570.5 2241.5 565.5C2249.17 560.167 2257.17 556.167 2265.5 553.5C2273.83 550.5 2282.33 548.5 2291 547.5C2300 546.167 2308.83 545.5 2317.5 545.5H2348V528.5C2348 522.833 2347.17 517.5 2345.5 512.5C2343.83 507.167 2341 502.667 2337 499C2333.33 495 2328.83 492.167 2323.5 490.5C2318.17 488.833 2312.83 488 2307.5 488C2302.5 488 2297.67 488.5 2293 489.5C2288.33 490.5 2284 492.5 2280 495.5C2276 498.167 2272.83 501.833 2270.5 506.5C2268.17 510.833 2267 515.333 2267 520V521H2211.5V518.5C2211.5 510.833 2212.67 503.333 2215 496C2217.33 488.333 2220.67 481.333 2225 475C2229.33 468.333 2234.67 462.833 2241 458.5C2247.67 453.833 2254.5 450.167 2261.5 447.5C2268.83 444.5 2276.33 442.5 2284 441.5C2292 440.5 2299.83 440 2307.5 440C2315.83 440 2324 440.667 2332 442C2340.33 443 2348.17 445.167 2355.5 448.5C2363.17 451.833 2370.17 456.333 2376.5 462C2382.83 467.333 2388 473.667 2392 481C2396.33 488 2399.33 495.667 2401 504C2402.67 512 2403.5 520.167 2403.5 528.5V704H2348V663C2345.33 669.667 2341.83 676 2337.5 682C2333.17 687.667 2328 692.5 2322 696.5C2316.33 700.5 2310 703.333 2303 705C2296 707 2289 708 2282 708ZM2305.5 660C2311.5 660 2317.33 659 2323 657C2328.67 655 2333.33 651.833 2337 647.5C2341 642.833 2343.83 637.667 2345.5 632C2347.17 626 2348 620 2348 614V593.5H2317.5C2313.5 593.5 2309.5 593.667 2305.5 594C2301.5 594.333 2297.5 595 2293.5 596C2289.83 597 2286.17 598.5 2282.5 600.5C2278.83 602.167 2275.5 604.333 2272.5 607C2269.83 609.667 2267.67 613 2266 617C2264.67 620.667 2264 624.5 2264 628.5C2264 633.167 2265.17 637.833 2267.5 642.5C2269.83 646.833 2273 650.333 2277 653C2281.33 655.667 2286 657.5 2291 658.5C2296 659.5 2300.83 660 2305.5 660Z" fill="#438EE8"/>
<rect x="78" y="32" width="1064" height="992" stroke="black"/>
<path d="M223 600H363L426 455L522 857L643 210L746 607L836 390L925 581H1047" stroke="#438EE8" stroke-width="63" stroke-linecap="round" stroke-linejoin="round"/>
</svg>
