<svg width="4849" height="1057" viewBox="0 0 4849 1057" fill="none" xmlns="http://www.w3.org/2000/svg">
<path d="M1132.6 787V297H1206.8L1385.3 587.5L1349.6 586.8L1530.2 297H1600.2V787H1524.6V586.1C1524.6 544.1 1525.53 506.3 1527.4 472.7C1529.73 439.1 1533.47 405.733 1538.6 372.6L1548.4 398.5L1388.1 646.3H1341.9L1186.5 401.3L1194.2 372.6C1199.33 403.867 1202.83 436.067 1204.7 469.2C1207.03 501.867 1208.2 540.833 1208.2 586.1V787H1132.6ZM1850.88 794C1813.08 794 1779.48 786.067 1750.08 770.2C1721.15 753.867 1698.28 731.7 1681.48 703.7C1665.15 675.7 1656.98 643.5 1656.98 607.1C1656.98 578.167 1661.65 551.8 1670.98 528C1680.31 504.2 1693.15 483.667 1709.48 466.4C1726.28 448.667 1746.11 435.133 1768.98 425.8C1792.31 416 1817.51 411.1 1844.58 411.1C1868.38 411.1 1890.55 415.767 1911.08 425.1C1931.61 433.967 1949.35 446.333 1964.28 462.2C1979.68 478.067 1991.35 496.967 1999.28 518.9C2007.68 540.367 2011.65 563.933 2011.18 589.6L2010.48 620.4H1710.18L1694.08 563H1948.18L1937.68 574.9V558.1C1936.28 542.7 1931.15 528.933 1922.28 516.8C1913.41 504.667 1902.21 495.1 1888.68 488.1C1875.15 481.1 1860.45 477.6 1844.58 477.6C1819.38 477.6 1798.15 482.5 1780.88 492.3C1763.61 501.633 1750.55 515.633 1741.68 534.3C1732.81 552.5 1728.38 575.133 1728.38 602.2C1728.38 627.867 1733.75 650.267 1744.48 669.4C1755.21 688.067 1770.38 702.533 1789.98 712.8C1809.58 723.067 1832.21 728.2 1857.88 728.2C1876.08 728.2 1892.88 725.167 1908.28 719.1C1924.15 713.033 1941.18 702.067 1959.38 686.2L1995.78 737.3C1984.58 748.5 1970.81 758.3 1954.48 766.7C1938.61 775.1 1921.58 781.867 1903.38 787C1885.65 791.667 1868.15 794 1850.88 794ZM2202.84 794C2169.24 794 2139.14 785.833 2112.54 769.5C2086.4 752.7 2065.64 730.067 2050.24 701.6C2034.84 672.667 2027.14 639.767 2027.14 602.9C2027.14 566.033 2034.6 533.367 2049.54 504.9C2064.94 475.967 2085.7 453.333 2111.84 437C2137.97 420.2 2167.6 411.8 2200.74 411.8C2218.94 411.8 2236.44 414.833 2253.24 420.9C2270.5 426.5 2285.9 434.433 2299.44 444.7C2312.97 454.5 2323.47 465.467 2330.94 477.6C2338.87 489.267 2342.84 501.167 2342.84 513.3L2321.84 514.7V269H2393.94V787H2321.84V699.5H2335.84C2335.84 710.7 2332.1 721.9 2324.64 733.1C2317.17 743.833 2307.14 753.867 2294.54 763.2C2282.4 772.533 2268.17 780 2251.84 785.6C2235.97 791.2 2219.64 794 2202.84 794ZM2212.64 731.7C2234.57 731.7 2253.94 726.1 2270.74 714.9C2287.54 703.7 2300.6 688.533 2309.94 669.4C2319.74 649.8 2324.64 627.633 2324.64 602.9C2324.64 578.167 2319.74 556.233 2309.94 537.1C2300.6 517.5 2287.54 502.1 2270.74 490.9C2253.94 479.7 2234.57 474.1 2212.64 474.1C2190.7 474.1 2171.34 479.7 2154.54 490.9C2137.74 502.1 2124.44 517.5 2114.64 537.1C2105.3 556.233 2100.64 578.167 2100.64 602.9C2100.64 627.633 2105.3 649.8 2114.64 669.4C2124.44 688.533 2137.74 703.7 2154.54 714.9C2171.34 726.1 2190.7 731.7 2212.64 731.7ZM2465.09 787V419.5H2537.19V787H2465.09ZM2500.09 338.3C2484.69 338.3 2472.79 334.333 2464.39 326.4C2455.99 318.467 2451.79 307.267 2451.79 292.8C2451.79 279.267 2455.99 268.3 2464.39 259.9C2473.26 251.5 2485.16 247.3 2500.09 247.3C2515.49 247.3 2527.39 251.267 2535.79 259.2C2544.19 267.133 2548.39 278.333 2548.39 292.8C2548.39 306.333 2543.96 317.3 2535.09 325.7C2526.69 334.1 2515.02 338.3 2500.09 338.3ZM2749.41 794C2719.08 794 2691.31 785.6 2666.11 768.8C2641.38 752 2621.55 729.133 2606.61 700.2C2591.68 671.267 2584.21 638.6 2584.21 602.2C2584.21 565.333 2591.68 532.667 2606.61 504.2C2622.01 475.267 2642.55 452.633 2668.21 436.3C2694.35 419.967 2723.51 411.8 2755.71 411.8C2774.85 411.8 2792.35 414.6 2808.21 420.2C2824.08 425.8 2837.85 433.733 2849.51 444C2861.65 453.8 2871.45 465.233 2878.91 478.3C2886.85 491.367 2891.75 505.367 2893.61 520.3L2877.51 514.7V419.5H2950.31V787H2877.51V699.5L2894.31 694.6C2891.51 707.2 2885.68 719.567 2876.81 731.7C2868.41 743.367 2857.45 753.867 2843.91 763.2C2830.85 772.533 2816.15 780 2799.81 785.6C2783.95 791.2 2767.15 794 2749.41 794ZM2768.31 727.5C2790.25 727.5 2809.61 722.133 2826.41 711.4C2843.21 700.667 2856.28 685.967 2865.61 667.3C2875.41 648.167 2880.31 626.467 2880.31 602.2C2880.31 578.4 2875.41 557.167 2865.61 538.5C2856.28 519.833 2843.21 505.133 2826.41 494.4C2809.61 483.667 2790.25 478.3 2768.31 478.3C2746.85 478.3 2727.71 483.667 2710.91 494.4C2694.58 505.133 2681.51 519.833 2671.71 538.5C2662.38 557.167 2657.71 578.4 2657.71 602.2C2657.71 626.467 2662.38 648.167 2671.71 667.3C2681.51 685.967 2694.58 700.667 2710.91 711.4C2727.71 722.133 2746.85 727.5 2768.31 727.5ZM3214.31 794C3180.24 794 3148.98 787.933 3120.51 775.8C3092.04 763.667 3067.31 746.4 3046.31 724C3025.31 701.133 3008.98 674.3 2997.31 643.5C2986.11 612.7 2980.51 578.867 2980.51 542C2980.51 507 2986.58 474.567 2998.71 444.7C3011.31 414.367 3028.58 387.767 3050.51 364.9C3072.44 342.033 3097.88 324.3 3126.81 311.7C3155.74 299.1 3187.01 292.8 3220.61 292.8C3244.41 292.8 3267.51 296.533 3289.91 304C3312.78 311 3333.31 321.033 3351.51 334.1C3370.18 346.7 3385.34 361.167 3397.01 377.5L3346.61 430C3333.08 416.467 3319.31 405.267 3305.31 396.4C3291.78 387.067 3277.78 380.067 3263.31 375.4C3249.31 370.733 3235.08 368.4 3220.61 368.4C3197.74 368.4 3176.28 372.833 3156.21 381.7C3136.61 390.1 3119.34 402 3104.41 417.4C3089.94 432.8 3078.51 451.233 3070.11 472.7C3061.71 493.7 3057.51 516.8 3057.51 542C3057.51 568.6 3061.48 592.867 3069.41 614.8C3077.81 636.267 3089.48 654.7 3104.41 670.1C3119.34 685.5 3137.08 697.4 3157.61 705.8C3178.61 713.733 3201.71 717.7 3226.91 717.7C3242.31 717.7 3257.48 715.6 3272.41 711.4C3287.34 707.2 3301.34 701.133 3314.41 693.2C3327.48 685.267 3339.38 675.933 3350.11 665.2L3387.91 726.8C3377.18 739.4 3362.48 750.833 3343.81 761.1C3325.61 771.367 3305.08 779.533 3282.21 785.6C3259.81 791.2 3237.18 794 3214.31 794ZM3433.81 787V269H3505.91V787H3433.81ZM3579.99 787V419.5H3652.09V787H3579.99ZM3614.99 338.3C3599.59 338.3 3587.69 334.333 3579.29 326.4C3570.89 318.467 3566.69 307.267 3566.69 292.8C3566.69 279.267 3570.89 268.3 3579.29 259.9C3588.16 251.5 3600.06 247.3 3614.99 247.3C3630.39 247.3 3642.29 251.267 3650.69 259.2C3659.09 267.133 3663.29 278.333 3663.29 292.8C3663.29 306.333 3658.86 317.3 3649.99 325.7C3641.59 334.1 3629.92 338.3 3614.99 338.3ZM3722.92 787V419.5H3795.02V495.1L3782.42 503.5C3787.08 487.167 3796.18 472.233 3809.72 458.7C3823.25 444.7 3839.35 433.5 3858.02 425.1C3876.68 416.233 3895.82 411.8 3915.42 411.8C3943.42 411.8 3966.75 417.4 3985.42 428.6C4004.08 439.333 4018.08 455.9 4027.42 478.3C4036.75 500.7 4041.42 528.933 4041.42 563V787H3969.32V567.9C3969.32 546.9 3966.52 529.633 3960.92 516.1C3955.32 502.1 3946.68 492.067 3935.02 486C3923.35 479.467 3908.88 476.667 3891.62 477.6C3877.62 477.6 3864.78 479.933 3853.12 484.6C3841.45 488.8 3831.18 494.867 3822.32 502.8C3813.92 510.733 3807.15 520.067 3802.02 530.8C3797.35 541.067 3795.02 552.267 3795.02 564.4V787H3759.32C3753.25 787 3747.18 787 3741.12 787C3735.05 787 3728.98 787 3722.92 787ZM4111.12 787V419.5H4183.22V787H4111.12ZM4146.12 338.3C4130.72 338.3 4118.82 334.333 4110.42 326.4C4102.02 318.467 4097.82 307.267 4097.82 292.8C4097.82 279.267 4102.02 268.3 4110.42 259.9C4119.29 251.5 4131.19 247.3 4146.12 247.3C4161.52 247.3 4173.42 251.267 4181.82 259.2C4190.22 267.133 4194.42 278.333 4194.42 292.8C4194.42 306.333 4189.99 317.3 4181.12 325.7C4172.72 334.1 4161.06 338.3 4146.12 338.3ZM4410.15 794C4376.08 794 4345.52 785.6 4318.45 768.8C4291.85 752 4270.62 729.133 4254.75 700.2C4239.35 671.267 4231.65 638.833 4231.65 602.9C4231.65 566.967 4239.35 534.533 4254.75 505.6C4270.62 476.667 4291.85 453.8 4318.45 437C4345.52 420.2 4376.08 411.8 4410.15 411.8C4442.82 411.8 4472.45 418.567 4499.05 432.1C4526.12 445.167 4546.65 463.133 4560.65 486L4520.75 535C4513.28 524.267 4503.72 514.467 4492.05 505.6C4480.38 496.733 4468.02 489.733 4454.95 484.6C4441.88 479.467 4429.28 476.9 4417.15 476.9C4394.75 476.9 4374.68 482.5 4356.95 493.7C4339.68 504.433 4325.92 519.367 4315.65 538.5C4305.38 557.633 4300.25 579.1 4300.25 602.9C4300.25 626.7 4305.62 648.167 4316.35 667.3C4327.08 685.967 4341.32 700.9 4359.05 712.1C4376.78 723.3 4396.38 728.9 4417.85 728.9C4430.45 728.9 4442.58 726.8 4454.25 722.6C4466.38 718.4 4478.05 712.1 4489.25 703.7C4500.45 695.3 4510.95 685.033 4520.75 672.9L4560.65 721.9C4545.72 742.9 4524.25 760.167 4496.25 773.7C4468.72 787.233 4440.02 794 4410.15 794Z" fill="white"/>
<rect y="33" width="1064" height="992" stroke="black"/>
<path d="M145 601H285L348 456L444 858L565 211L668 608L758 391L847 582H969" stroke="white" stroke-width="63" stroke-linecap="round" stroke-linejoin="round"/>
</svg>
