<svg width="3818" height="1057" viewBox="0 0 3818 1057" fill="none" xmlns="http://www.w3.org/2000/svg">
<path d="M1235 704V336.5H1289.5L1369.5 586.5L1450 336.5H1504.5V704H1465.5V630.5C1465.5 609.167 1465.5 587.833 1465.5 566.5C1465.83 544.833 1466.17 523.333 1466.5 502V465C1466.83 453.333 1467 441.667 1467 430C1467.33 418 1467.5 406 1467.5 394L1387.5 642H1351.5L1272 394C1272 406 1272 418 1272 430C1272.33 441.667 1272.5 453.333 1272.5 465L1273 502C1273.33 523.333 1273.5 544.833 1273.5 566.5C1273.83 587.833 1274 609.167 1274 630.5V704H1235ZM1656.5 708C1647.5 708 1638.5 707 1629.5 705C1620.83 703.333 1612.5 700.333 1604.5 696C1596.83 691.667 1589.83 686.167 1583.5 679.5C1577.5 672.5 1572.66 665 1569 657C1565.33 648.667 1562.83 640 1561.5 631C1560.16 622 1559.5 613 1559.5 604V544C1559.5 535 1560.16 526 1561.5 517C1562.83 508 1565.33 499.5 1569 491.5C1573 483.167 1578 475.667 1584 469C1590 462 1596.83 456.333 1604.5 452C1612.5 447.333 1621 444.167 1630 442.5C1639 440.833 1648 440 1657 440C1664.66 440 1672.5 440.5 1680.5 441.5C1688.5 442.5 1696.16 444.5 1703.5 447.5C1710.83 450.167 1717.66 453.833 1724 458.5C1730.66 463.167 1736.16 468.833 1740.5 475.5C1745.16 481.833 1748.5 489 1750.5 497C1752.5 504.667 1753.5 512.5 1753.5 520.5C1753.5 528.5 1752.5 536.333 1750.5 544C1748.5 551.667 1745 558.667 1740 565C1735.33 571.333 1729.5 576.667 1722.5 581C1715.83 585.333 1708.66 588.833 1701 591.5C1693.66 594.167 1686 596 1678 597C1670.33 597.667 1662.5 598 1654.5 598H1598.5V604C1598.5 609.667 1598.83 615.333 1599.5 621C1600.16 626.667 1601.5 632.167 1603.5 637.5C1605.5 642.833 1608.16 647.833 1611.5 652.5C1615.16 657.167 1619.33 661.167 1624 664.5C1628.66 667.5 1633.83 669.667 1639.5 671C1645.16 672.333 1650.83 673 1656.5 673C1663.16 673 1669.66 672.5 1676 671.5C1682.66 670.167 1688.83 667.833 1694.5 664.5C1700.16 660.833 1704.66 656.167 1708 650.5C1711.66 644.5 1713.5 638.167 1713.5 631.5H1752.5C1752.5 639.167 1751.16 646.667 1748.5 654C1746.16 661.333 1742.66 668.167 1738 674.5C1733.66 680.5 1728.33 685.833 1722 690.5C1715.66 694.833 1708.83 698.333 1701.5 701C1694.5 703.667 1687.16 705.5 1679.5 706.5C1671.83 707.5 1664.16 708 1656.5 708ZM1598.5 563H1654.5C1659.16 563 1663.83 562.833 1668.5 562.5C1673.16 561.833 1677.66 561 1682 560C1686.33 558.667 1690.5 556.833 1694.5 554.5C1698.83 552.167 1702.5 549.333 1705.5 546C1708.83 542.333 1711.16 538.333 1712.5 534C1713.83 529.333 1714.5 524.667 1714.5 520C1714.5 513.333 1712.83 506.833 1709.5 500.5C1706.5 493.833 1702.16 488.667 1696.5 485C1690.83 481 1684.5 478.333 1677.5 477C1670.5 475.667 1663.66 475 1657 475C1651.33 475 1645.66 475.667 1640 477C1634.33 478.333 1629 480.667 1624 484C1619.33 487 1615.16 490.833 1611.5 495.5C1608.16 500.167 1605.5 505.167 1603.5 510.5C1601.5 515.833 1600.16 521.333 1599.5 527C1598.83 532.667 1598.5 538.333 1598.5 544V563ZM1884 708C1875.66 708 1867.5 706.833 1859.5 704.5C1851.5 702.167 1844.16 698.5 1837.5 693.5C1831.16 688.167 1825.83 682 1821.5 675C1817.16 668 1813.66 660.667 1811 653C1808.33 645 1806.5 637 1805.5 629C1804.83 620.667 1804.5 612.333 1804.5 604V544C1804.5 535.667 1804.83 527.5 1805.5 519.5C1806.5 511.167 1808.33 503.167 1811 495.5C1813.66 487.5 1817.16 480 1821.5 473C1825.83 466 1831.16 460 1837.5 455C1844.16 449.667 1851.5 445.833 1859.5 443.5C1867.5 441.167 1875.66 440 1884 440C1892 440 1899.83 441.167 1907.5 443.5C1915.16 445.5 1922.16 448.833 1928.5 453.5C1934.83 458.167 1940.16 463.833 1944.5 470.5C1949.16 477.167 1952.83 484.333 1955.5 492V336.5H1994.5V660.5C1994.5 662.167 1994.66 663.833 1995 665.5C1995.66 667.167 1996.5 668.667 1997.5 670C1998.83 671 2000.33 671.833 2002 672.5C2003.66 672.833 2005.33 673 2007 673H2017.5V708H2007C2000.33 708 1993.66 707.167 1987 705.5C1980.66 703.833 1975 700.833 1970 696.5C1965 691.833 1961.33 686.333 1959 680C1956.66 673.667 1955.5 667.167 1955.5 660.5V656C1952.83 663.667 1949.16 670.833 1944.5 677.5C1940.16 684.167 1934.83 689.833 1928.5 694.5C1922.16 699.167 1915.16 702.5 1907.5 704.5C1899.83 706.833 1892 708 1884 708ZM1899.5 673C1905.16 673 1910.66 672.333 1916 671C1921.66 669.667 1926.66 667.333 1931 664C1935.66 660.667 1939.66 656.667 1943 652C1946.33 647.333 1948.83 642.333 1950.5 637C1952.5 631.667 1953.83 626.333 1954.5 621C1955.16 615.333 1955.5 609.667 1955.5 604V544C1955.5 538.333 1955.16 532.833 1954.5 527.5C1953.83 521.833 1952.5 516.333 1950.5 511C1948.83 505.667 1946.33 500.667 1943 496C1939.66 491.333 1935.66 487.333 1931 484C1926.66 480.667 1921.66 478.333 1916 477C1910.66 475.667 1905.16 475 1899.5 475C1893.83 475 1888.16 475.667 1882.5 477C1877.16 478.333 1872.16 480.667 1867.5 484C1863.16 487.333 1859.33 491.333 1856 496C1852.66 500.667 1850 505.667 1848 511C1846.33 516.333 1845.16 521.833 1844.5 527.5C1843.83 532.833 1843.5 538.333 1843.5 544V604C1843.5 609.667 1843.83 615.333 1844.5 621C1845.16 626.333 1846.33 631.667 1848 637C1850 642.333 1852.66 647.333 1856 652C1859.33 656.667 1863.16 660.667 1867.5 664C1872.16 667.333 1877.16 669.667 1882.5 671C1888.16 672.333 1893.83 673 1899.5 673ZM2173.5 704H2154.5C2148.16 704 2141.83 703.5 2135.5 702.5C2129.5 701.5 2123.66 699.667 2118 697C2112.66 694 2107.66 690.333 2103 686C2098.66 681.667 2095.16 676.833 2092.5 671.5C2089.83 665.833 2088 660 2087 654C2086 647.667 2085.5 641.333 2085.5 635V479H2046.5V444H2124.5V635C2124.5 639.333 2125 643.667 2126 648C2127 652.333 2128.83 656.167 2131.5 659.5C2134.16 662.833 2137.5 665.333 2141.5 667C2145.83 668.333 2150.16 669 2154.5 669H2173.5V704ZM2105 400C2100.66 400 2096.5 399.5 2092.5 398.5C2088.5 397.167 2085 395 2082 392C2079 389 2076.83 385.5 2075.5 381.5C2074.16 377.5 2073.5 373.333 2073.5 369C2073.5 364.667 2074.16 360.5 2075.5 356.5C2076.83 352.5 2079 349 2082 346C2085 343 2088.5 340.833 2092.5 339.5C2096.5 338.167 2100.66 337.5 2105 337.5C2109 337.5 2113 338.167 2117 339.5C2121.33 340.833 2125 343 2128 346C2131 349 2133 352.5 2134 356.5C2135.33 360.5 2136 364.667 2136 369C2136 373.333 2135.33 377.5 2134 381.5C2133 385.5 2131 389 2128 392C2125 395 2121.33 397.167 2117 398.5C2113 399.5 2109 400 2105 400ZM2290 708C2280 708 2269.83 706.667 2259.5 704C2249.5 701.333 2240.67 696.667 2233 690C2225.33 683 2219.67 674.667 2216 665C2212.67 655 2211 644.833 2211 634.5C2211 626.167 2212 617.833 2214 609.5C2216.33 601.167 2220 593.667 2225 587C2230.33 580 2236.67 574.167 2244 569.5C2251.33 564.833 2259 561.167 2267 558.5C2275 555.5 2283.17 553.5 2291.5 552.5C2300.17 551.5 2308.83 551 2317.5 551H2362V526.5C2362 519.5 2360.83 512.5 2358.5 505.5C2356.17 498.5 2352.33 492.667 2347 488C2341.67 483.333 2335.5 480 2328.5 478C2321.5 476 2314.5 475 2307.5 475C2301.17 475 2294.83 475.667 2288.5 477C2282.17 478 2276.17 480.333 2270.5 484C2265.17 487.333 2260.83 491.833 2257.5 497.5C2254.5 503.167 2253 509.167 2253 515.5V516.5H2214V515C2214 507.333 2215.17 500 2217.5 493C2219.83 485.667 2223.17 479 2227.5 473C2231.83 466.667 2237 461.333 2243 457C2249.33 452.667 2256 449.333 2263 447C2270.33 444.333 2277.67 442.5 2285 441.5C2292.33 440.5 2299.83 440 2307.5 440C2315.5 440 2323.5 440.667 2331.5 442C2339.5 443 2347.17 445.167 2354.5 448.5C2361.83 451.833 2368.5 456.167 2374.5 461.5C2380.83 466.833 2386 473 2390 480C2394 487 2396.83 494.5 2398.5 502.5C2400.17 510.5 2401 518.5 2401 526.5V704H2362V661C2359.33 668 2355.5 674.667 2350.5 681C2345.83 687 2340.33 692.167 2334 696.5C2327.67 700.833 2320.67 703.833 2313 705.5C2305.33 707.167 2297.67 708 2290 708ZM2305.5 673C2313.5 673 2321.17 671.833 2328.5 669.5C2336.17 666.833 2342.5 662.667 2347.5 657C2352.83 651.333 2356.5 644.667 2358.5 637C2360.83 629.333 2362 621.667 2362 614V586H2317.5C2312.17 586 2307 586.333 2302 587C2297 587.333 2292 588.167 2287 589.5C2282.33 590.833 2277.67 592.667 2273 595C2268.33 597 2264.17 599.833 2260.5 603.5C2256.83 607.167 2254.17 611.5 2252.5 616.5C2250.83 621.167 2250 626 2250 631C2250 637.667 2251.5 644 2254.5 650C2257.83 656 2262.17 660.833 2267.5 664.5C2273.17 667.833 2279.33 670.167 2286 671.5C2292.67 672.5 2299.17 673 2305.5 673ZM2551.5 708C2542.83 708 2534 707.167 2525 705.5C2516.33 703.833 2508.17 700.833 2500.5 696.5C2492.83 692.167 2486 686.667 2480 680C2474 673.333 2469.17 666 2465.5 658C2461.83 650 2459.33 641.667 2458 633C2456.67 624 2456 615.167 2456 606.5V434C2456 425.333 2456.67 416.667 2458 408C2459.33 399 2461.83 390.5 2465.5 382.5C2469.17 374.5 2474 367.167 2480 360.5C2486 353.833 2492.83 348.333 2500.5 344C2508.17 339.667 2516.33 336.667 2525 335C2534 333.333 2542.83 332.5 2551.5 332.5C2559.83 332.5 2568 333.167 2576 334.5C2584.33 335.833 2592.17 338.333 2599.5 342C2607.17 345.667 2614 350.5 2620 356.5C2626.33 362.167 2631.5 368.667 2635.5 376C2639.5 383 2642.33 390.667 2644 399C2646 407 2647 415.167 2647 423.5V426.5H2608V424.5C2608 416.833 2606.83 409.333 2604.5 402C2602.17 394.667 2598.33 388.333 2593 383C2587.67 377.333 2581.33 373.333 2574 371C2566.67 368.667 2559.17 367.5 2551.5 367.5C2543.17 367.5 2535 369.167 2527 372.5C2519.33 375.833 2513 380.833 2508 387.5C2503 393.833 2499.5 401.167 2497.5 409.5C2495.83 417.5 2495 425.667 2495 434V606.5C2495 614.833 2495.83 623.167 2497.5 631.5C2499.5 639.5 2503 646.833 2508 653.5C2513 659.833 2519.33 664.667 2527 668C2535 671.333 2543.17 673 2551.5 673C2559.17 673 2566.67 671.833 2574 669.5C2581.33 667.167 2587.67 663.333 2593 658C2598.33 652.333 2602.17 645.833 2604.5 638.5C2606.83 631.167 2608 623.667 2608 616V614H2647V617C2647 625.333 2646 633.667 2644 642C2642.33 650 2639.5 657.667 2635.5 665C2631.5 672 2626.33 678.5 2620 684.5C2614 690.167 2607.17 694.833 2599.5 698.5C2592.17 702.167 2584.33 704.667 2576 706C2568 707.333 2559.83 708 2551.5 708ZM2825 704H2806C2799.67 704 2793.33 703.5 2787 702.5C2781 701.5 2775.17 699.667 2769.5 697C2764.17 694 2759.17 690.333 2754.5 686C2750.17 681.667 2746.67 676.833 2744 671.5C2741.33 665.833 2739.5 660 2738.5 654C2737.5 647.667 2737 641.333 2737 635V371.5H2698V336.5H2776V635C2776 639.333 2776.5 643.667 2777.5 648C2778.5 652.333 2780.33 656.167 2783 659.5C2785.67 662.833 2789 665.333 2793 667C2797.33 668.333 2801.67 669 2806 669H2825V704ZM2986.5 704H2967.5C2961.17 704 2954.84 703.5 2948.5 702.5C2942.5 701.5 2936.67 699.667 2931 697C2925.67 694 2920.67 690.333 2916 686C2911.67 681.667 2908.17 676.833 2905.5 671.5C2902.84 665.833 2901 660 2900 654C2899 647.667 2898.5 641.333 2898.5 635V479H2859.5V444H2937.5V635C2937.5 639.333 2938 643.667 2939 648C2940 652.333 2941.84 656.167 2944.5 659.5C2947.17 662.833 2950.5 665.333 2954.5 667C2958.84 668.333 2963.17 669 2967.5 669H2986.5V704ZM2918 400C2913.67 400 2909.5 399.5 2905.5 398.5C2901.5 397.167 2898 395 2895 392C2892 389 2889.84 385.5 2888.5 381.5C2887.17 377.5 2886.5 373.333 2886.5 369C2886.5 364.667 2887.17 360.5 2888.5 356.5C2889.84 352.5 2892 349 2895 346C2898 343 2901.5 340.833 2905.5 339.5C2909.5 338.167 2913.67 337.5 2918 337.5C2922 337.5 2926 338.167 2930 339.5C2934.34 340.833 2938 343 2941 346C2944 349 2946 352.5 2947 356.5C2948.34 360.5 2949 364.667 2949 369C2949 373.333 2948.34 377.5 2947 381.5C2946 385.5 2944 389 2941 392C2938 395 2934.34 397.167 2930 398.5C2926 399.5 2922 400 2918 400ZM3028.01 704V444H3067.01V491.5C3069.67 484.167 3073.01 477.167 3077.01 470.5C3081.34 463.833 3086.51 458.167 3092.51 453.5C3098.84 448.833 3105.84 445.5 3113.51 443.5C3121.17 441.167 3128.84 440 3136.51 440C3144.84 440 3152.84 441.167 3160.51 443.5C3168.51 445.833 3175.67 449.667 3182.01 455C3188.34 460.333 3193.51 466.5 3197.51 473.5C3201.84 480.5 3205.17 488 3207.51 496C3210.17 503.667 3211.84 511.667 3212.51 520C3213.51 528 3214.01 536 3214.01 544V704H3175.01V544C3175.01 538.333 3174.67 532.833 3174.01 527.5C3173.34 521.833 3172.17 516.5 3170.51 511.5C3168.84 506.167 3166.34 501.167 3163.01 496.5C3160.01 491.833 3156.34 487.833 3152.01 484.5C3147.67 481.167 3142.84 478.833 3137.51 477.5C3132.17 475.833 3126.67 475 3121.01 475C3115.34 475 3109.84 475.833 3104.51 477.5C3099.17 478.833 3094.34 481.167 3090.01 484.5C3085.67 487.833 3081.84 491.833 3078.51 496.5C3075.51 501.167 3073.17 506.167 3071.51 511.5C3069.84 516.5 3068.67 521.833 3068.01 527.5C3067.34 532.833 3067.01 538.333 3067.01 544V704H3028.01ZM3393.01 704H3374.01C3367.67 704 3361.34 703.5 3355.01 702.5C3349.01 701.5 3343.17 699.667 3337.51 697C3332.17 694 3327.17 690.333 3322.51 686C3318.17 681.667 3314.67 676.833 3312.01 671.5C3309.34 665.833 3307.51 660 3306.51 654C3305.51 647.667 3305.01 641.333 3305.01 635V479H3266.01V444H3344.01V635C3344.01 639.333 3344.51 643.667 3345.51 648C3346.51 652.333 3348.34 656.167 3351.01 659.5C3353.67 662.833 3357.01 665.333 3361.01 667C3365.34 668.333 3369.67 669 3374.01 669H3393.01V704ZM3324.51 400C3320.17 400 3316.01 399.5 3312.01 398.5C3308.01 397.167 3304.51 395 3301.51 392C3298.51 389 3296.34 385.5 3295.01 381.5C3293.67 377.5 3293.01 373.333 3293.01 369C3293.01 364.667 3293.67 360.5 3295.01 356.5C3296.34 352.5 3298.51 349 3301.51 346C3304.51 343 3308.01 340.833 3312.01 339.5C3316.01 338.167 3320.17 337.5 3324.51 337.5C3328.51 337.5 3332.51 338.167 3336.51 339.5C3340.84 340.833 3344.51 343 3347.51 346C3350.51 349 3352.51 352.5 3353.51 356.5C3354.84 360.5 3355.51 364.667 3355.51 369C3355.51 373.333 3354.84 377.5 3353.51 381.5C3352.51 385.5 3350.51 389 3347.51 392C3344.51 395 3340.84 397.167 3336.51 398.5C3332.51 399.5 3328.51 400 3324.51 400ZM3526.01 708C3517.01 708 3508.01 707 3499.01 705C3490.35 703.333 3482.18 700.333 3474.51 696C3466.85 691.333 3460.01 685.667 3454.01 679C3448.35 672 3443.68 664.5 3440.01 656.5C3436.35 648.167 3433.85 639.667 3432.51 631C3431.18 622 3430.51 613 3430.51 604V544C3430.51 535 3431.18 526.167 3432.51 517.5C3433.85 508.5 3436.35 500 3440.01 492C3443.68 483.667 3448.35 476.167 3454.01 469.5C3460.01 462.5 3466.85 456.833 3474.51 452.5C3482.18 447.833 3490.35 444.667 3499.01 443C3508.01 441 3517.01 440 3526.01 440C3534.35 440 3542.68 440.667 3551.01 442C3559.35 443.333 3567.18 445.833 3574.51 449.5C3581.85 453.167 3588.51 458 3594.51 464C3600.85 469.667 3606.01 476.167 3610.01 483.5C3614.01 490.833 3616.85 498.667 3618.51 507C3620.51 515 3621.51 523.167 3621.51 531.5V534H3582.51V532.5C3582.51 524.833 3581.35 517.333 3579.01 510C3576.68 502.667 3572.85 496.333 3567.51 491C3562.18 485.333 3555.85 481.333 3548.51 479C3541.18 476.333 3533.68 475 3526.01 475C3520.35 475 3514.68 475.667 3509.01 477C3503.68 478.333 3498.68 480.667 3494.01 484C3489.35 487.333 3485.35 491.333 3482.01 496C3479.01 500.667 3476.51 505.667 3474.51 511C3472.51 516 3471.18 521.333 3470.51 527C3469.85 532.667 3469.51 538.333 3469.51 544V604C3469.51 609.667 3469.85 615.333 3470.51 621C3471.18 626.667 3472.51 632.167 3474.51 637.5C3476.51 642.5 3479.01 647.333 3482.01 652C3485.35 656.667 3489.35 660.667 3494.01 664C3498.68 667.333 3503.68 669.667 3509.01 671C3514.68 672.333 3520.35 673 3526.01 673C3533.68 673 3541.18 671.833 3548.51 669.5C3555.85 666.833 3562.18 662.833 3567.51 657.5C3572.85 651.833 3576.68 645.333 3579.01 638C3581.35 630.667 3582.51 623.167 3582.51 615.5V614H3621.51V616.5C3621.51 624.833 3620.51 633.167 3618.51 641.5C3616.85 649.5 3614.01 657.167 3610.01 664.5C3606.01 671.833 3600.85 678.5 3594.51 684.5C3588.51 690.167 3581.85 694.833 3574.51 698.5C3567.18 702.167 3559.35 704.667 3551.01 706C3542.68 707.333 3534.35 708 3526.01 708Z" fill="white"/>
<rect x="78" y="32" width="1064" height="992" stroke="white"/>
<path d="M223 600H363L426 455L522 857L643 210L746 607L836 390L925 581H1047" stroke="white" stroke-width="63" stroke-linecap="round" stroke-linejoin="round"/>
</svg>
