<svg width="3818" height="1057" viewBox="0 0 3818 1057" fill="none" xmlns="http://www.w3.org/2000/svg">
<path d="M1171.5 719V351.5H1244L1308.5 574.5L1373 351.5H1446V719H1390V645.5C1390 611.5 1390.5 577.5 1391.5 543.5C1392.83 509.5 1393.83 475.5 1394.5 441.5L1332.5 657H1285L1222.5 441.5C1223.5 475.5 1224.5 509.5 1225.5 543.5C1226.5 577.5 1227 611.5 1227 645.5V719H1171.5ZM1590.5 723C1581.16 723 1572 722.167 1563 720.5C1554 718.833 1545.5 715.833 1537.5 711.5C1529.5 707.167 1522.33 701.667 1516 695C1510 688 1505 680.333 1501 672C1497.33 663.667 1494.66 655 1493 646C1491.66 637 1491 628 1491 619V559C1491 550 1491.66 541 1493 532C1494.66 522.667 1497.33 514 1501 506C1505 497.667 1510.16 490.167 1516.5 483.5C1522.83 476.5 1530 470.833 1538 466.5C1546 462.167 1554.5 459.167 1563.5 457.5C1572.5 455.833 1581.5 455 1590.5 455C1598.83 455 1607 455.5 1615 456.5C1623.33 457.5 1631.33 459.5 1639 462.5C1646.66 465.5 1653.83 469.5 1660.5 474.5C1667.16 479.5 1672.66 485.333 1677 492C1681.66 498.667 1685 506.167 1687 514.5C1689 522.5 1690 530.5 1690 538.5C1690 546.833 1689 555 1687 563C1685 571 1681.5 578.333 1676.5 585C1671.83 591.333 1666 596.833 1659 601.5C1652.33 606.167 1645.16 609.833 1637.5 612.5C1629.83 615.167 1621.83 617 1613.5 618C1605.5 619 1597.5 619.5 1589.5 619.5H1547C1547 626.167 1547.66 632.833 1549 639.5C1550.33 646.167 1552.83 652.333 1556.5 658C1560.16 663.333 1565 667.5 1571 670.5C1577.33 673.5 1583.83 675 1590.5 675C1595.5 675 1600.5 674.5 1605.5 673.5C1610.5 672.5 1615 670.667 1619 668C1623.33 665 1626.66 661.167 1629 656.5C1631.66 651.833 1633.16 647 1633.5 642H1689C1689 650 1687.83 657.833 1685.5 665.5C1683.16 673.167 1679.66 680.333 1675 687C1670.33 693.667 1664.66 699.333 1658 704C1651.66 708.667 1644.66 712.5 1637 715.5C1629.66 718.5 1622 720.5 1614 721.5C1606.33 722.5 1598.5 723 1590.5 723ZM1546.5 571.5H1589.5C1594.83 571.5 1600 571.167 1605 570.5C1610.33 569.5 1615.16 567.667 1619.5 565C1624.16 562 1627.83 558.167 1630.5 553.5C1633.16 548.833 1634.5 543.833 1634.5 538.5C1634.5 533.167 1633.33 528 1631 523C1628.66 518 1625.33 514 1621 511C1616.66 508 1611.83 506 1606.5 505C1601.16 503.667 1596 503 1591 503C1584 503 1577.33 504.5 1571 507.5C1565 510.5 1560 514.833 1556 520.5C1552.33 526.167 1549.83 532.333 1548.5 539C1547.16 545.667 1546.5 552.333 1546.5 559V571.5ZM1804.5 723C1796.5 723 1788.66 721.667 1781 719C1773.33 716.667 1766.5 712.833 1760.5 707.5C1754.5 701.833 1749.5 695.5 1745.5 688.5C1741.83 681.5 1738.83 674.167 1736.5 666.5C1734.5 658.833 1733 651 1732 643C1731.33 635 1731 627 1731 619V559C1731 551 1731.33 543 1732 535C1733 527 1734.5 519.167 1736.5 511.5C1738.83 503.833 1741.83 496.5 1745.5 489.5C1749.5 482.5 1754.5 476.333 1760.5 471C1766.5 465.333 1773.33 461.333 1781 459C1788.66 456.333 1796.5 455 1804.5 455C1811.83 455 1819.16 456.167 1826.5 458.5C1833.83 460.5 1840.33 463.833 1846 468.5C1851.66 473.167 1856.5 478.667 1860.5 485C1864.5 491 1867.83 497.5 1870.5 504.5V351.5H1926V664.5C1926 666.167 1926.16 667.667 1926.5 669C1926.83 670.333 1927.5 671.5 1928.5 672.5C1929.5 673.5 1930.66 674.167 1932 674.5C1933.33 674.833 1934.83 675 1936.5 675H1946.5V723H1936.5C1928.83 723 1921.16 722.167 1913.5 720.5C1905.83 718.833 1898.83 715.833 1892.5 711.5C1886.16 707.167 1881 701.5 1877 694.5C1873.33 687.5 1871.16 680.167 1870.5 672.5C1868.16 679.833 1865 686.667 1861 693C1857 699.333 1852 704.833 1846 709.5C1840.33 714.167 1833.83 717.5 1826.5 719.5C1819.5 721.833 1812.16 723 1804.5 723ZM1828.5 675C1835.16 675 1841.5 673.5 1847.5 670.5C1853.5 667.167 1858.16 662.667 1861.5 657C1864.83 651.333 1867.16 645.333 1868.5 639C1869.83 632.333 1870.5 625.667 1870.5 619V559C1870.5 552.333 1869.83 545.833 1868.5 539.5C1867.16 532.833 1864.83 526.667 1861.5 521C1858.16 515.333 1853.5 511 1847.5 508C1841.5 504.667 1835.16 503 1828.5 503C1821.83 503 1815.5 504.667 1809.5 508C1803.5 511 1798.83 515.333 1795.5 521C1792.16 526.667 1789.83 532.833 1788.5 539.5C1787.16 545.833 1786.5 552.333 1786.5 559V619C1786.5 625.667 1787.16 632.333 1788.5 639C1789.83 645.333 1792.16 651.333 1795.5 657C1798.83 662.667 1803.5 667.167 1809.5 670.5C1815.5 673.5 1821.83 675 1828.5 675ZM2097.5 719H2077.5C2070.83 719 2064.16 718.5 2057.5 717.5C2050.83 716.5 2044.5 714.667 2038.5 712C2032.5 709 2026.83 705.333 2021.5 701C2016.5 696.333 2012.33 691.167 2009 685.5C2006 679.5 2003.83 673.167 2002.5 666.5C2001.5 659.833 2001 653.167 2001 646.5V507H1970.5V459H2056.5V646.5C2056.5 649.5 2056.83 652.5 2057.5 655.5C2058.16 658.5 2059.5 661.333 2061.5 664C2063.5 666.333 2065.83 668.167 2068.5 669.5C2071.5 670.5 2074.5 671 2077.5 671H2097.5V719ZM2029 424C2023.66 424 2018.33 423.167 2013 421.5C2007.66 419.833 2003 417.167 1999 413.5C1995.33 409.833 1992.66 405.333 1991 400C1989.66 394.667 1989 389.333 1989 384C1989 378.667 1989.66 373.333 1991 368C1992.66 362.667 1995.33 358.167 1999 354.5C2003 350.833 2007.66 348.167 2013 346.5C2018.33 344.833 2023.66 344 2029 344C2034.33 344 2039.66 344.833 2045 346.5C2050.33 348.167 2054.83 350.833 2058.5 354.5C2062.16 358.167 2064.83 362.667 2066.5 368C2068.16 373.333 2069 378.667 2069 384C2069 389.333 2068.16 394.667 2066.5 400C2064.83 405.333 2062.16 409.833 2058.5 413.5C2054.83 417.167 2050.33 419.833 2045 421.5C2039.66 423.167 2034.33 424 2029 424ZM2201 723C2191 723 2181.17 721.5 2171.5 718.5C2161.83 715.5 2153.5 710.5 2146.5 703.5C2139.83 696.167 2135 687.667 2132 678C2129 668.333 2127.5 658.5 2127.5 648.5C2127.5 639.833 2128.5 631.167 2130.5 622.5C2132.83 613.5 2136.5 605.5 2141.5 598.5C2146.83 591.5 2153.17 585.5 2160.5 580.5C2168.17 575.167 2176.17 571.167 2184.5 568.5C2192.83 565.5 2201.33 563.5 2210 562.5C2219 561.167 2227.83 560.5 2236.5 560.5H2267V543.5C2267 537.833 2266.17 532.5 2264.5 527.5C2262.83 522.167 2260 517.667 2256 514C2252.33 510 2247.83 507.167 2242.5 505.5C2237.17 503.833 2231.83 503 2226.5 503C2221.5 503 2216.67 503.5 2212 504.5C2207.33 505.5 2203 507.5 2199 510.5C2195 513.167 2191.83 516.833 2189.5 521.5C2187.17 525.833 2186 530.333 2186 535V536H2130.5V533.5C2130.5 525.833 2131.67 518.333 2134 511C2136.33 503.333 2139.67 496.333 2144 490C2148.33 483.333 2153.67 477.833 2160 473.5C2166.67 468.833 2173.5 465.167 2180.5 462.5C2187.83 459.5 2195.33 457.5 2203 456.5C2211 455.5 2218.83 455 2226.5 455C2234.83 455 2243 455.667 2251 457C2259.33 458 2267.17 460.167 2274.5 463.5C2282.17 466.833 2289.17 471.333 2295.5 477C2301.83 482.333 2307 488.667 2311 496C2315.33 503 2318.33 510.667 2320 519C2321.67 527 2322.5 535.167 2322.5 543.5V719H2267V678C2264.33 684.667 2260.83 691 2256.5 697C2252.17 702.667 2247 707.5 2241 711.5C2235.33 715.5 2229 718.333 2222 720C2215 722 2208 723 2201 723ZM2224.5 675C2230.5 675 2236.33 674 2242 672C2247.67 670 2252.33 666.833 2256 662.5C2260 657.833 2262.83 652.667 2264.5 647C2266.17 641 2267 635 2267 629V608.5H2236.5C2232.5 608.5 2228.5 608.667 2224.5 609C2220.5 609.333 2216.5 610 2212.5 611C2208.83 612 2205.17 613.5 2201.5 615.5C2197.83 617.167 2194.5 619.333 2191.5 622C2188.83 624.667 2186.67 628 2185 632C2183.67 635.667 2183 639.5 2183 643.5C2183 648.167 2184.17 652.833 2186.5 657.5C2188.83 661.833 2192 665.333 2196 668C2200.33 670.667 2205 672.5 2210 673.5C2215 674.5 2219.83 675 2224.5 675ZM2465.5 723C2456.5 723 2447.33 722 2438 720C2429 718.333 2420.5 715.333 2412.5 711C2404.83 706.333 2397.83 700.5 2391.5 693.5C2385.5 686.167 2380.67 678.333 2377 670C2373.33 661.667 2370.83 653 2369.5 644C2368.17 634.667 2367.5 625.5 2367.5 616.5V454C2367.5 445 2368.17 436 2369.5 427C2370.83 417.667 2373.33 408.833 2377 400.5C2380.67 392.167 2385.5 384.5 2391.5 377.5C2397.83 370.167 2404.83 364.333 2412.5 360C2420.5 355.333 2429 352.167 2438 350.5C2447.33 348.5 2456.5 347.5 2465.5 347.5C2474.17 347.5 2482.67 348.333 2491 350C2499.67 351.333 2507.83 354 2515.5 358C2523.17 361.667 2530 366.667 2536 373C2542.33 379 2547.5 385.833 2551.5 393.5C2555.5 400.833 2558.5 408.833 2560.5 417.5C2562.5 425.833 2563.5 434.333 2563.5 443V446H2508V444.5C2508 438.5 2507.17 432.5 2505.5 426.5C2503.83 420.5 2501.17 415.167 2497.5 410.5C2493.83 405.5 2489 401.833 2483 399.5C2477.33 396.833 2471.5 395.5 2465.5 395.5C2460.83 395.5 2456.33 396.167 2452 397.5C2447.67 398.833 2443.83 401 2440.5 404C2437.17 407 2434.33 410.5 2432 414.5C2429.67 418.5 2427.83 422.667 2426.5 427C2425.17 431.333 2424.17 435.833 2423.5 440.5C2423.17 444.833 2423 449.333 2423 454V616.5C2423 621.167 2423.17 625.833 2423.5 630.5C2424.17 634.833 2425.17 639.167 2426.5 643.5C2427.83 647.833 2429.67 652 2432 656C2434.33 660 2437.17 663.5 2440.5 666.5C2443.83 669.5 2447.67 671.667 2452 673C2456.33 674.333 2460.83 675 2465.5 675C2471.5 675 2477.33 673.833 2483 671.5C2489 668.833 2493.83 665.167 2497.5 660.5C2501.17 655.5 2503.83 650 2505.5 644C2507.17 638 2508 632 2508 626V624.5H2563.5V627.5C2563.5 636.167 2562.5 644.833 2560.5 653.5C2558.5 661.833 2555.5 669.833 2551.5 677.5C2547.5 684.833 2542.33 691.667 2536 698C2530 704 2523.17 709 2515.5 713C2507.83 716.667 2499.67 719.167 2491 720.5C2482.67 722.167 2474.17 723 2465.5 723ZM2734 719H2714C2707.33 719 2700.67 718.5 2694 717.5C2687.33 716.5 2681 714.667 2675 712C2669 709 2663.33 705.333 2658 701C2653 696.333 2648.83 691.167 2645.5 685.5C2642.5 679.5 2640.33 673.167 2639 666.5C2638 659.833 2637.5 653.167 2637.5 646.5V399.5H2607V351.5H2693V646.5C2693 649.5 2693.33 652.5 2694 655.5C2694.67 658.5 2696 661.333 2698 664C2700 666.333 2702.33 668.167 2705 669.5C2708 670.5 2711 671 2714 671H2734V719ZM2890.5 719H2870.5C2863.84 719 2857.17 718.5 2850.5 717.5C2843.84 716.5 2837.5 714.667 2831.5 712C2825.5 709 2819.84 705.333 2814.5 701C2809.5 696.333 2805.34 691.167 2802 685.5C2799 679.5 2796.84 673.167 2795.5 666.5C2794.5 659.833 2794 653.167 2794 646.5V507H2763.5V459H2849.5V646.5C2849.5 649.5 2849.84 652.5 2850.5 655.5C2851.17 658.5 2852.5 661.333 2854.5 664C2856.5 666.333 2858.84 668.167 2861.5 669.5C2864.5 670.5 2867.5 671 2870.5 671H2890.5V719ZM2822 424C2816.67 424 2811.34 423.167 2806 421.5C2800.67 419.833 2796 417.167 2792 413.5C2788.34 409.833 2785.67 405.333 2784 400C2782.67 394.667 2782 389.333 2782 384C2782 378.667 2782.67 373.333 2784 368C2785.67 362.667 2788.34 358.167 2792 354.5C2796 350.833 2800.67 348.167 2806 346.5C2811.34 344.833 2816.67 344 2822 344C2827.34 344 2832.67 344.833 2838 346.5C2843.34 348.167 2847.84 350.833 2851.5 354.5C2855.17 358.167 2857.84 362.667 2859.5 368C2861.17 373.333 2862 378.667 2862 384C2862 389.333 2861.17 394.667 2859.5 400C2857.84 405.333 2855.17 409.833 2851.5 413.5C2847.84 417.167 2843.34 419.833 2838 421.5C2832.67 423.167 2827.34 424 2822 424ZM2924.51 719V459H2980.01V504C2982.67 497.333 2985.84 490.833 2989.51 484.5C2993.51 478.167 2998.17 472.833 3003.51 468.5C3009.17 463.833 3015.51 460.5 3022.51 458.5C3029.51 456.167 3036.67 455 3044.01 455C3052.01 455 3059.67 456.333 3067.01 459C3074.67 461.667 3081.34 465.833 3087.01 471.5C3093.01 476.833 3097.84 483 3101.51 490C3105.17 497 3108.01 504.333 3110.01 512C3112.34 519.667 3113.84 527.5 3114.51 535.5C3115.17 543.167 3115.51 551 3115.51 559V719H3060.01V559C3060.01 554.667 3059.67 550.333 3059.01 546C3058.67 541.667 3057.84 537.5 3056.51 533.5C3055.51 529.167 3053.84 525.167 3051.51 521.5C3049.51 517.833 3046.84 514.5 3043.51 511.5C3040.51 508.5 3036.84 506.333 3032.51 505C3028.51 503.667 3024.34 503 3020.01 503C3015.67 503 3011.34 503.667 3007.01 505C3003.01 506.333 2999.34 508.5 2996.01 511.5C2993.01 514.5 2990.34 517.833 2988.01 521.5C2986.01 525.167 2984.34 529.167 2983.01 533.5C2982.01 537.5 2981.17 541.667 2980.51 546C2980.17 550.333 2980.01 554.667 2980.01 559V719H2924.51ZM3287.01 719H3267.01C3260.34 719 3253.67 718.5 3247.01 717.5C3240.34 716.5 3234.01 714.667 3228.01 712C3222.01 709 3216.34 705.333 3211.01 701C3206.01 696.333 3201.84 691.167 3198.51 685.5C3195.51 679.5 3193.34 673.167 3192.01 666.5C3191.01 659.833 3190.51 653.167 3190.51 646.5V507H3160.01V459H3246.01V646.5C3246.01 649.5 3246.34 652.5 3247.01 655.5C3247.67 658.5 3249.01 661.333 3251.01 664C3253.01 666.333 3255.34 668.167 3258.01 669.5C3261.01 670.5 3264.01 671 3267.01 671H3287.01V719ZM3218.51 424C3213.17 424 3207.84 423.167 3202.51 421.5C3197.17 419.833 3192.51 417.167 3188.51 413.5C3184.84 409.833 3182.17 405.333 3180.51 400C3179.17 394.667 3178.51 389.333 3178.51 384C3178.51 378.667 3179.17 373.333 3180.51 368C3182.17 362.667 3184.84 358.167 3188.51 354.5C3192.51 350.833 3197.17 348.167 3202.51 346.5C3207.84 344.833 3213.17 344 3218.51 344C3223.84 344 3229.17 344.833 3234.51 346.5C3239.84 348.167 3244.34 350.833 3248.01 354.5C3251.67 358.167 3254.34 362.667 3256.01 368C3257.67 373.333 3258.51 378.667 3258.51 384C3258.51 389.333 3257.67 394.667 3256.01 400C3254.34 405.333 3251.67 409.833 3248.01 413.5C3244.34 417.167 3239.84 419.833 3234.51 421.5C3229.17 423.167 3223.84 424 3218.51 424ZM3415.01 723C3406.01 723 3397.01 722.167 3388.01 720.5C3379.01 718.833 3370.51 715.833 3362.51 711.5C3354.85 706.833 3347.85 701.167 3341.51 694.5C3335.51 687.5 3330.51 680 3326.51 672C3322.85 663.667 3320.35 655 3319.01 646C3317.68 637 3317.01 628 3317.01 619V559C3317.01 550 3317.68 541 3319.01 532C3320.35 523 3322.85 514.5 3326.51 506.5C3330.51 498.167 3335.51 490.667 3341.51 484C3347.85 477 3354.85 471.333 3362.51 467C3370.51 462.333 3379.01 459.167 3388.01 457.5C3397.01 455.833 3406.01 455 3415.01 455C3423.68 455 3432.18 455.833 3440.51 457.5C3449.18 458.833 3457.35 461.5 3465.01 465.5C3472.68 469.167 3479.51 474 3485.51 480C3491.85 486 3497.01 492.833 3501.01 500.5C3505.01 508.167 3508.01 516.167 3510.01 524.5C3512.01 532.833 3513.01 541.333 3513.01 550V553.5H3457.51V552C3457.51 545.667 3456.68 539.5 3455.01 533.5C3453.35 527.5 3450.68 522.167 3447.01 517.5C3443.35 512.833 3438.51 509.333 3432.51 507C3426.85 504.333 3421.01 503 3415.01 503C3408.35 503 3402.01 504.667 3396.01 508C3390.01 511 3385.18 515.333 3381.51 521C3378.18 526.667 3375.85 532.833 3374.51 539.5C3373.18 545.833 3372.51 552.333 3372.51 559V619C3372.51 625.667 3373.18 632.333 3374.51 639C3375.85 645.333 3378.18 651.333 3381.51 657C3385.18 662.667 3390.01 667.167 3396.01 670.5C3402.01 673.5 3408.35 675 3415.01 675C3421.01 675 3426.85 673.833 3432.51 671.5C3438.51 668.833 3443.35 665.167 3447.01 660.5C3450.68 655.833 3453.35 650.5 3455.01 644.5C3456.68 638.5 3457.51 632.333 3457.51 626V624.5H3513.01V628C3513.01 636.667 3512.01 645.167 3510.01 653.5C3508.01 661.833 3505.01 669.833 3501.01 677.5C3497.01 685.167 3491.85 692 3485.51 698C3479.51 704 3472.68 709 3465.01 713C3457.35 716.667 3449.18 719.167 3440.51 720.5C3432.18 722.167 3423.68 723 3415.01 723Z" fill="white"/>
<rect x="78" y="33" width="1064" height="992" stroke="black"/>
<path d="M223 601H363L426 456L522 858L643 211L746 608L836 391L925 582H1047" stroke="white" stroke-width="63" stroke-linecap="round" stroke-linejoin="round"/>
</svg>
